HIERARCHY
ROOT hip
{
  OFFSET 0 0 0
  CHANNELS 6 Xposition Yposition Zposition Zrotation Yrotation Xrotation
  JOINT abdomen
  {
    OFFSET 0 20.6881 -0.73152
    CHANNELS 3 Zrotation Xrotation Yrotation
    JOINT chest
    {
      OFFSET 0 11.7043 -0.48768
      CHANNELS 3 Zrotation Xrotation Yrotation
      JOINT neck
      {
        OFFSET 0 22.1894 -2.19456
        CHANNELS 3 Zrotation Xrotation Yrotation
        JOINT head
        {
          OFFSET -0.24384 7.07133 1.2192
          CHANNELS 3 Zrotation Xrotation Yrotation
          JOINT leftEye
          {
            OFFSET 4.14528 8.04674 8.04672
            CHANNELS 3 Zrotation Xrotation Yrotation
            End Site
            {
              OFFSET 1 0 0
            }
          }
          JOINT rightEye
          {
            OFFSET -3.6576 8.04674 8.04672
            CHANNELS 3 Zrotation Xrotation Yrotation
            End Site
            {
              OFFSET 1 0 0
            }
          }
        }
      }
      JOINT rCollar
      {
        OFFSET -2.68224 19.2634 -4.8768
        CHANNELS 3 Zrotation Xrotation Yrotation
        JOINT rShldr
        {
          OFFSET -8.77824 -1.95073 1.46304
          CHANNELS 3 Zrotation Xrotation Yrotation
          JOINT rForeArm
          {
            OFFSET -28.1742 -1.7115 0.48768
            CHANNELS 3 Zrotation Xrotation Yrotation
            JOINT rHand
            {
              OFFSET -22.5879 0.773209 7.07136
              CHANNELS 3 Zrotation Xrotation Yrotation
              JOINT rThumb1
              {
                OFFSET -1.2192 -0.487915 3.41376
                CHANNELS 3 Zrotation Xrotation Yrotation
                JOINT rThumb2
                {
                  OFFSET -3.37035 -0.52449 3.41376
                  CHANNELS 3 Zrotation Xrotation Yrotation
                  End Site
                  {
                    OFFSET -1.78271 -1.18214 1.43049
                  }
                }
              }
              JOINT rIndex1
              {
                OFFSET -7.75947 0.938293 5.60832
                CHANNELS 3 Zrotation Xrotation Yrotation
                JOINT rIndex2
                {
                  OFFSET -2.54057 -0.884171 1.56538
                  CHANNELS 3 Zrotation Xrotation Yrotation
                  End Site
                  {
                    OFFSET -1.62519 -0.234802 1.16502
                  }
                }
              }
              JOINT rMid1
              {
                OFFSET -8.24714 1.18213 3.41376
                CHANNELS 3 Zrotation Xrotation Yrotation
                JOINT rMid2
                {
                  OFFSET -3.10165 -0.590103 1.0647
                  CHANNELS 3 Zrotation Xrotation Yrotation
                  End Site
                  {
                    OFFSET -2.48547 -0.328903 0.83742
                  }
                }
              }
              JOINT rRing1
              {
                OFFSET -8.82822 0.546677 1.51678
                CHANNELS 3 Zrotation Xrotation Yrotation
                JOINT rRing2
                {
                  OFFSET -2.60934 -0.819778 -0.0198488
                  CHANNELS 3 Zrotation Xrotation Yrotation
                  End Site
                  {
                    OFFSET -2.33842 -0.294052 0.168128
                  }
                }
              }
              JOINT rPinky1
              {
                OFFSET -8.27202 -0.0477905 -0.4584
                CHANNELS 3 Zrotation Xrotation Yrotation
                JOINT rPinky2
                {
                  OFFSET -1.82734 -0.647385 -0.700984
                  CHANNELS 3 Zrotation Xrotation Yrotation
                  End Site
                  {
                    OFFSET -1.69225 -0.51767 -0.607171
                  }
                }
              }
            }
          }
        }
      }
      JOINT lCollar
      {
        OFFSET 2.68224 19.2634 -4.8768
        CHANNELS 3 Zrotation Xrotation Yrotation
        JOINT lShldr
        {
          OFFSET 8.77824 -1.95073 1.46304
          CHANNELS 3 Zrotation Xrotation Yrotation
          JOINT lForeArm
          {
            OFFSET 28.1742 -1.7115 0.48768
            CHANNELS 3 Zrotation Xrotation Yrotation
            JOINT lHand
            {
              OFFSET 22.5879 0.773209 7.07136
              CHANNELS 3 Zrotation Xrotation Yrotation
              JOINT lThumb1
              {
                OFFSET 1.2192 -0.487915 3.41376
                CHANNELS 3 Zrotation Xrotation Yrotation
                JOINT lThumb2
                {
                  OFFSET 3.37035 -0.52449 3.41376
                  CHANNELS 3 Zrotation Xrotation Yrotation
                  End Site
                  {
                    OFFSET 1.78271 -1.18214 1.43049
                  }
                }
              }
              JOINT lIndex1
              {
                OFFSET 7.75947 0.938293 5.60832
                CHANNELS 3 Zrotation Xrotation Yrotation
                JOINT lIndex2
                {
                  OFFSET 2.54057 -0.884171 1.56538
                  CHANNELS 3 Zrotation Xrotation Yrotation
                  End Site
                  {
                    OFFSET 1.62519 -0.234802 1.16502
                  }
                }
              }
              JOINT lMid1
              {
                OFFSET 8.24714 1.18213 3.41376
                CHANNELS 3 Zrotation Xrotation Yrotation
                JOINT lMid2
                {
                  OFFSET 3.10165 -0.590103 1.0647
                  CHANNELS 3 Zrotation Xrotation Yrotation
                  End Site
                  {
                    OFFSET 2.48547 -0.328903 0.83742
                  }
                }
              }
              JOINT lRing1
              {
                OFFSET 8.82822 0.546677 1.51678
                CHANNELS 3 Zrotation Xrotation Yrotation
                JOINT lRing2
                {
                  OFFSET 2.60934 -0.819778 -0.0198488
                  CHANNELS 3 Zrotation Xrotation Yrotation
                  End Site
                  {
                    OFFSET 2.33842 -0.294052 0.168128
                  }
                }
              }
              JOINT lPinky1
              {
                OFFSET 8.27202 -0.0477905 -0.4584
                CHANNELS 3 Zrotation Xrotation Yrotation
                JOINT lPinky2
                {
                  OFFSET 1.82734 -0.647385 -0.700984
                  CHANNELS 3 Zrotation Xrotation Yrotation
                  End Site
                  {
                    OFFSET 1.69225 -0.51767 -0.607171
                  }
                }
              }
            }
          }
        }
      }
    }
  }
  JOINT rButtock
  {
    OFFSET -8.77824 4.35084 1.2192
    CHANNELS 3 Zrotation Xrotation Yrotation
    JOINT rThigh
    {
      OFFSET 0 -1.70687 -2.19456
      CHANNELS 3 Zrotation Xrotation Yrotation
      JOINT rShin
      {
        OFFSET 0 -36.8199 0.73152
        CHANNELS 3 Zrotation Xrotation Yrotation
        JOINT rFoot
        {
          OFFSET 0.73152 -45.1104 -5.12064
          CHANNELS 3 Zrotation Xrotation Yrotation
          End Site
          {
            OFFSET -1.1221 -3.69964 12.103
          }
        }
      }
    }
  }
  JOINT lButtock
  {
    OFFSET 8.77824 4.35084 1.2192
    CHANNELS 3 Zrotation Xrotation Yrotation
    JOINT lThigh
    {
      OFFSET 0 -1.70687 -2.19456
      CHANNELS 3 Zrotation Xrotation Yrotation
      JOINT lShin
      {
        OFFSET 0 -36.8199 0.73152
        CHANNELS 3 Zrotation Xrotation Yrotation
        JOINT lFoot
        {
          OFFSET -0.73152 -45.1104 -5.12064
          CHANNELS 3 Zrotation Xrotation Yrotation
          End Site
          {
            OFFSET 1.1221 -3.69964 12.103
          }
        }
      }
    }
  }
}
MOTION
Frames:	9
Frame Time:	0.00833333
-1.07212 47.0365 195.417 0.0 -0.0 0.0 -0.0 -0.0 -0.0 0.0 0.0 -0.0 11.160513 5.697289 76.598524 -8.138245 9.538717 -76.47548 0.0 0.0 0.0 0.0 0.0 0.0 -153.578749 7.463415 159.321023 75.736149 -75.382541 52.735972 -16.355224 -79.053396 -20.744233 1.284702 -4.078964 0.185509 71.831195 -48.263725 25.791675 -14.185033 -32.13274 -27.166272 -4.706866 7.223928 2.854949 -178.411012 -20.670638 110.671782 -160.826363 -7.141801 143.31627 -15.400277 42.585698 15.157632 -0.014868 -1.323148 -0.415899 -33.034779 72.283666 35.863677 -80.939074 -51.227554 -79.359772 0.570322 -8.496623 -1.340377 157.797051 -22.115459 -165.467367 -8.698466 16.805924 -20.923339 -9.073418 -50.425945 29.657868 -171.93531 -12.828821 -144.3254 -178.475877 -18.892669 -89.013166 77.672598 10.490492 -23.879355 145.489151 -6.527846 -118.750759 172.687325 -53.047678 -115.18324 0.571049 1.648356 -0.322148 174.084979 -28.055328 -144.331468 -0.004561 0.876454 -0.275323 16.103537 61.965394 -18.344437 81.323898 -51.182704 79.740822 84.581054 -55.303522 85.214561 -180.0 75.749642 -0.0 -180.0 73.473292 -180.0 5.025459 -5.947284 123.870029 -156.595544 -63.264842 -34.713136 -180.0 75.749642 -0.0 -180.0 73.473292 -180.0 5.864878 -4.414665 123.647879 113.949069 37.236218 -42.319094
-1.08493 46.9911 195.463 0.0 -0.0 0.0 -0.0 -4.771896 -180.0 0.0 -4.771896 -180.0 10.653412 15.037204 132.142383 -3.918791 17.948196 -132.93335 -0.0 0.0 -0.0 -0.0 0.0 -0.0 3.542039 -62.05305 -13.039183 -129.648649 67.913508 128.259503 165.747735 -4.734924 152.848221 -165.66997 46.5476 139.043511 -0.543938 0.536215 0.086055 20.978465 -33.153805 -14.279431 -108.427673 34.160977 91.742903 1.905962 20.113838 -11.675069 -36.036059 51.723116 29.832321 -170.085807 -25.053816 147.150816 -145.122644 1.080237 -179.467674 -144.671623 -5.180596 -178.343617 32.017443 83.320556 6.228541 -11.62891 -23.346177 -13.853801 33.837732 -85.66573 55.255002 1.9316 6.2616 -17.59996 164.689135 -10.333926 -153.241198 -135.192139 -62.674324 -117.051215 -90.436978 -50.939783 -38.665475 101.967297 -86.915176 140.568118 3.528385 5.495184 -2.105627 169.039927 -7.054256 -110.599365 -23.903801 -61.333833 -1.399383 21.694775 40.821261 -17.769352 -0.004875 1.770451 -0.556181 165.859993 -0.816886 -172.213367 1.203484 -3.047547 1.116064 149.187304 9.863856 143.387522 -180.0 75.749642 -0.0 -180.0 73.473292 -180.0 5.025459 -5.947284 123.870029 -156.595544 -63.264842 -34.713136 -180.0 75.749642 -0.0 -180.0 73.473292 -180.0 5.864878 -4.414665 123.647879 56.864574 45.751291 11.07038
-1.09714 46.9463 195.508 0.0 -0.0 0.0 -0.0 -0.0 -0.0 0.0 0.0 -0.0 -7.839959 7.474454 -64.637578 10.095103 3.902534 64.805654 0.0 -0.0 -0.0 0.0 -0.0 -0.0 -142.586389 40.121077 146.977594 22.082363 -5.558969 6.731841 86.081843 75.372215 -110.417401 -172.115471 34.162281 142.80731 -166.631339 -4.304864 89.77151 121.773742 -56.863525 86.234932 12.216524 -21.784719 -5.120188 -78.408686 44.340977 54.703299 6.908911 -21.623998 -2.809719 -157.638031 17.693665 138.031943 -0.021291 -1.725169 -0.542387 0.888125 -11.319478 -1.030715 -14.102891 -26.511289 -13.432208 -129.185114 -31.952209 -126.514137 159.220516 -48.028485 -170.415257 164.503651 -3.538009 -157.712414 -166.076675 1.147089 -154.361199 166.393301 45.382008 -139.522083 169.319662 -7.000857 -89.921973 -143.626673 -46.859223 -95.983258 148.886119 -12.609784 -120.244776 -26.990693 -13.726438 12.965261 89.835461 60.702148 -81.262754 -16.052064 -43.72578 3.877505 0.000473 -0.060845 0.019116 150.294012 60.761113 -154.092502 -9.96654 32.461829 -8.6263 -72.981617 84.701796 37.325938 -180.0 75.749642 -0.0 -180.0 73.473292 -180.0 5.025459 -5.947284 123.870029 -156.595544 -63.264842 -34.713136 -180.0 75.749642 -0.0 -180.0 73.473292 -180.0 5.864878 -4.414665 123.647879 113.949069 37.236218 -42.319094
-1.1099 46.9047 195.553 0.0 -0.0 0.0 -0.0 -0.0 -0.0 0.0 0.0 -0.0 11.160513 5.697289 76.598524 -8.138245 9.538717 -76.47548 0.0 0.0 0.0 0.0 0.0 0.0 -153.578749 7.463415 159.321023 75.736149 -75.382541 52.735972 -16.355224 -79.053396 -20.744233 1.284702 -4.078964 0.185509 71.831195 -48.263725 25.791675 -14.185033 -32.13274 -27.166272 -4.706866 7.223928 2.854949 -178.411012 -20.670638 110.671782 -160.826363 -7.141801 143.31627 -15.400277 42.585698 15.157632 -0.014868 -1.323148 -0.415899 -33.034779 72.283666 35.863677 -80.939074 -51.227554 -79.359772 0.570322 -8.496623 -1.340377 157.797051 -22.115459 -165.467367 -8.698466 16.805924 -20.923339 -9.073418 -50.425945 29.657868 -171.93531 -12.828821 -144.3254 -178.475877 -18.892669 -89.013166 77.672598 10.490492 -23.879355 145.489151 -6.527846 -118.750759 172.687325 -53.047678 -115.18324 0.571049 1.648356 -0.322148 174.084979 -28.055328 -144.331468 -0.004561 0.876454 -0.275323 16.103537 61.965394 -18.344437 81.323898 -51.182704 79.740822 84.581054 -55.303522 85.214561 -180.0 75.749642 -0.0 -180.0 73.473292 -180.0 5.025459 -5.947284 123.870029 -156.595544 -63.264842 -34.713136 -180.0 75.749642 -0.0 -180.0 73.473292 -180.0 5.864878 -4.414665 123.647879 113.949069 37.236218 -42.319094
-1.12315 46.8691 195.601 0.0 -0.0 0.0 -0.0 -0.0 -0.0 0.0 0.0 -0.0 11.825461 7.620085 88.105023 -8.008792 11.567786 -88.082808 0.0 -0.0 -0.0 0.0 -0.0 -0.0 -142.973735 39.431617 147.390037 -152.876061 -8.760784 171.26332 78.083059 -69.871221 51.370984 -160.577044 53.449864 135.383803 93.028426 -51.083891 40.500925 -14.342302 -71.815269 -43.175956 159.641557 -69.973343 102.396332 16.161158 7.85663 1.519939 -160.573436 -6.359341 143.198121 -2.658279 23.016394 5.271902 -69.84025 -72.122743 -86.714575 -155.515166 -29.396555 168.507705 -124.851156 -29.038378 -122.621388 -145.404742 13.353588 -144.31639 159.220516 -48.028485 -170.415257 -1.798516 18.086937 -22.906726 -24.904053 -79.720929 13.329601 -171.896104 -12.944398 -144.31268 176.59845 -14.213085 -89.690967 103.729343 15.870875 -44.191043 -60.461659 -70.523647 -15.71111 -98.722566 -56.192111 -41.512139 0.057679 0.167876 -0.032027 176.39994 -34.264259 -143.879414 0.000473 -0.060845 0.019116 86.737059 78.733129 -89.81746 25.537984 -38.087442 24.598474 -12.936418 44.257822 -10.724781 -180.0 75.749642 -0.0 -180.0 73.473292 -180.0 -5.864878 -4.414665 -123.647879 146.72979 -78.780692 43.491797 -180.0 75.749642 -0.0 -180.0 73.473292 -180.0 7.26445 -6.891104 98.805537 143.20663 44.203148 -76.229692
-1.13345 46.8329 195.648 0.0 -0.0 0.0 -0.0 -0.0 -0.0 0.0 0.0 -0.0 11.160513 5.697289 76.598524 -8.138245 9.538717 -76.47548 0.0 0.0 0.0 0.0 0.0 0.0 -153.578749 7.463415 159.321023 75.736149 -75.382541 52.735972 -16.355224 -79.053396 -20.744233 1.284702 -4.078964 0.185509 71.831195 -48.263725 25.791675 -14.185033 -32.13274 -27.166272 -4.706866 7.223928 2.854949 -178.411012 -20.670638 110.671782 -160.826363 -7.141801 143.31627 -15.400277 42.585698 15.157632 -0.014868 -1.323148 -0.415899 -33.034779 72.283666 35.863677 -80.939074 -51.227554 -79.359772 0.570322 -8.496623 -1.340377 157.797051 -22.115459 -165.467367 -8.698466 16.805924 -20.923339 -9.073418 -50.425945 29.657868 -171.93531 -12.828821 -144.3254 -178.475877 -18.892669 -89.013166 77.672598 10.490492 -23.879355 145.489151 -6.527846 -118.750759 172.687325 -53.047678 -115.18324 0.571049 1.648356 -0.322148 174.084979 -28.055328 -144.331468 -0.004561 0.876454 -0.275323 16.103537 61.965394 -18.344437 81.323898 -51.182704 79.740822 84.581054 -55.303522 85.214561 -180.0 75.749642 -0.0 -180.0 73.473292 -180.0 5.025459 -5.947284 123.870029 -156.595544 -63.264842 -34.713136 -180.0 75.749642 -0.0 -180.0 73.473292 -180.0 5.864878 -4.414665 123.647879 113.949069 37.236218 -42.319094
-1.14423 46.7943 195.693 0.0 -0.0 0.0 -0.0 -0.0 -0.0 0.0 0.0 -0.0 11.160513 5.697289 76.598524 -8.138245 9.538717 -76.47548 0.0 0.0 0.0 0.0 0.0 0.0 -153.578749 7.463415 159.321023 -164.706332 -39.4862 162.166429 172.863791 13.511429 149.151983 -179.727127 13.329089 145.201651 88.928376 -50.831327 37.599672 -89.965392 38.433375 51.150772 88.792192 -75.499035 40.049684 61.950602 -44.458689 13.924861 -8.305325 20.652672 5.560806 0.193901 0.564368 -1.0953 -145.119721 0.310087 -179.225753 22.517656 42.37087 -4.246879 -126.797849 -26.619602 -124.512652 -163.984616 71.987674 -148.674079 157.797051 -22.115459 -165.467367 109.27574 61.112003 -124.58785 167.652914 -0.743585 -148.217054 -151.309039 -51.597684 -131.138747 8.203144 7.848424 -1.806973 -13.400113 -15.191972 4.203149 127.615651 18.962913 -107.328458 -172.047891 -65.532881 -109.631583 0.057679 0.167876 -0.032027 -9.38731 -28.544217 1.458062 145.099691 -1.522044 178.64987 19.981316 -74.214284 51.717197 46.800482 -48.625216 45.559379 129.426503 -30.207878 128.48855 -180.0 75.749642 -0.0 -180.0 73.473292 -180.0 5.025459 -5.947284 123.870029 -156.595544 -63.264842 -34.713136 -180.0 75.749642 -0.0 -180.0 73.473292 -180.0 5.864878 -4.414665 123.647879 113.949069 37.236218 -42.319094
-1.1527 46.7534 195.735 0.0 -0.0 0.0 -0.0 -0.0 -0.0 0.0 0.0 -0.0 11.825461 7.620085 88.105023 -8.008792 11.567786 -88.082808 0.0 -0.0 -0.0 0.0 -0.0 -0.0 -142.973735 39.431617 147.390037 -152.876061 -8.760784 171.26332 78.083059 -69.871221 51.370984 -160.577044 53.449864 135.383803 93.028426 -51.083891 40.500925 -14.342302 -71.815269 -43.175956 159.641557 -69.973343 102.396332 16.161158 7.85663 1.519939 -160.573436 -6.359341 143.198121 -2.658279 23.016394 5.271902 -69.84025 -72.122743 -86.714575 -155.515166 -29.396555 168.507705 -124.851156 -29.038378 -122.621388 -145.404742 13.353588 -144.31639 159.220516 -48.028485 -170.415257 -1.798516 18.086937 -22.906726 -24.904053 -79.720929 13.329601 -171.896104 -12.944398 -144.31268 176.59845 -14.213085 -89.690967 103.729343 15.870875 -44.191043 -60.461659 -70.523647 -15.71111 -98.722566 -56.192111 -41.512139 0.057679 0.167876 -0.032027 176.39994 -34.264259 -143.879414 0.000473 -0.060845 0.019116 86.737059 78.733129 -89.81746 25.537984 -38.087442 24.598474 -12.936418 44.257822 -10.724781 -180.0 75.749642 -0.0 -180.0 73.473292 -180.0 -5.864878 -4.414665 -123.647879 146.72979 -78.780692 43.491797 -180.0 75.749642 -0.0 -180.0 73.473292 -180.0 7.26445 -6.891104 98.805537 143.20663 44.203148 -76.229692
-1.15901 46.7095 195.771 0.0 -0.0 0.0 -0.0 -0.0 -0.0 0.0 0.0 -0.0 11.160513 5.697289 76.598524 -8.138245 9.538717 -76.47548 0.0 0.0 0.0 0.0 0.0 0.0 -153.578749 7.463415 159.321023 75.736149 -75.382541 52.735972 -16.355224 -79.053396 -20.744233 1.284702 -4.078964 0.185509 -174.303261 -11.965801 89.864284 177.481475 -18.584485 96.763771 112.65811 -76.285796 61.487487 123.482457 -58.977972 58.53627 0.541241 -1.589941 -0.294737 -164.932426 -0.024208 142.671076 -0.000473 -0.060845 -0.019116 -166.779739 -22.609048 174.41686 8.580128 27.211748 7.533938 -149.731421 10.366336 -142.004015 157.797051 -22.115459 -165.467367 -8.698466 16.805924 -20.923339 -9.073418 -50.425945 29.657868 -171.93531 -12.828821 -144.3254 175.329686 -12.974996 -89.798138 22.259585 -39.630186 -0.967433 157.327488 -28.217551 -122.490444 10.932448 44.027514 -11.691183 -6.908911 -21.623998 2.809719 166.5322 -5.189769 -142.143898 0.000142 -0.018512 0.005816 85.442128 78.755566 -88.512253 -12.252484 41.424931 -10.280249 163.527686 52.314095 146.71366 -180.0 75.749642 -0.0 -180.0 73.473292 -180.0 5.025459 -5.947284 123.870029 -156.595544 -63.264842 -34.713136 -180.0 75.749642 -0.0 -180.0 73.473292 -180.0 5.864878 -4.414665 123.647879 113.949069 37.236218 -42.319094
